# xmcd
#
# Track frame offsets: 
#        150
#        15133
#        31185
#        60078
#        77476
#        106910
#        134854
#        156852
#        182596
#        199891
#        220200
#
# Disc length: 3090 seconds
#
# Revision: 2
# Processed by: cddbd v1.5.2PL0 Copyright (c) Steve Scherf et al.
# Submitted via: ExactAudioCopy v1.0b3
#
DISCID=840c100b
DTITLE=Sonny Rhodes - I'm Back Again
DYEAR=2009
DGENRE=Blues
TTITLE0=Can't Get Enough
TTITLE1=Traveling Bluesman
TTITLE2=Anne Mae Cafe'
TTITLE3=Can't Dance Boogie
TTITLE4=Tell Me the Truth
TTITLE5=Smithville Texas
TTITLE6=I'm Back Again
TTITLE7=Shake Your Hips
TTITLE8=I Was Kidding
TTITLE9=The Truth Hurts
TTITLE10=Texas Stomp
EXTD=YEAR: 2008
EXTT0=
EXTT1=
EXTT2=
EXTT3=
EXTT4=
EXTT5=
EXTT6=
EXTT7=
EXTT8=
EXTT9=
EXTT10=
PLAYORDER=
